{"asset":{"generator":"3D Builder","version":"2.0"},"scene":0,"scenes":[{"nodes":[0,1]}],"nodes":[{"mesh":0,"matrix":[17139.21875,0,0,0,0,-0.0020431540906429291,-17139.216796875,0,0,17276.234375,-0.002059487858787179,0,0.0027843238785862923,0.025136565789580345,0.80153977870941162,1]},{"mesh":1,"matrix":[17139.21875,0,0,0,0,-0.0020431540906429291,-17139.216796875,0,0,17276.25390625,-0.0020594901870936155,0,0.0027843238785862923,0.025136565789580345,0.80154591798782349,1]}],"meshes":[{"primitives":[{"attributes":{"POSITION":0,"TEXCOORD_0":1},"mode":4,"indices":2,"material":0}]},{"primitives":[{"attributes":{"POSITION":3,"TEXCOORD_0":4},"mode":4,"indices":5,"material":1}]}],"materials":[{"pbrMetallicRoughness":{"baseColorFactor":[1,1,1,1],"metallicFactor":1,"roughnessFactor":1,"baseColorTexture":{"index":0,"texCoord":0},"metallicRoughnessTexture":{"index":1,"texCoord":0}},"alphaMode":"OPAQUE"},{"pbrMetallicRoughness":{"baseColorFactor":[1,1,1,1],"metallicFactor":1,"roughnessFactor":1,"baseColorTexture":{"index":2,"texCoord":0},"metallicRoughnessTexture":{"index":3,"texCoord":0}},"alphaMode":"OPAQUE"}],"textures":[{"source":0,"sampler":0},{"source":1,"sampler":0},{"source":2,"sampler":0},{"source":3,"sampler":0}],"images":[{"uri":"texture_0_11563080508590297124.png"},{"uri":"texture_1_12154559721164250551.png"},{"uri":"texture_4_17026833529806663332.png"},{"uri":"texture_5_17618312742380616759.png"}],"samplers":[{"magFilter":9729,"wrapS":10497,"wrapT":10497}],"accessors":[{"bufferView":0,"byteOffset":0,"count":31737,"componentType":5126,"type":"VEC3","min":[-0.00042090265196748078,-0.0006756020593456924,2.7150181267643347E-5],"max":[0.00052080460591241717,0.0006557315937243402,0.0016754681710153818]},{"bufferView":1,"byteOffset":0,"count":31737,"componentType":5126,"type":"VEC2"},{"bufferView":2,"byteOffset":0,"count":116718,"componentType":5125,"type":"SCALAR"},{"bufferView":3,"byteOffset":0,"count":8772,"componentType":5126,"type":"VEC3","min":[-0.00062112847808748484,-0.000636241864413023,-1.4549723346135579E-6],"max":[0.00062025705119594932,0.00076908920891582966,0.0014728746609762311]},{"bufferView":4,"byteOffset":0,"count":8772,"componentType":5126,"type":"VEC2"},{"bufferView":5,"byteOffset":0,"count":46590,"componentType":5125,"type":"SCALAR"}],"bufferViews":[{"buffer":0,"byteOffset":0,"byteLength":380844,"byteStride":12,"target":34962},{"buffer":0,"byteOffset":380844,"byteLength":253896,"byteStride":8,"target":34962},{"buffer":0,"byteOffset":634740,"byteLength":466872,"target":34963},{"buffer":0,"byteOffset":1101612,"byteLength":105264,"byteStride":12,"target":34962},{"buffer":0,"byteOffset":1206876,"byteLength":70176,"byteStride":8,"target":34962},{"buffer":0,"byteOffset":1277052,"byteLength":186360,"target":34963}],"buffers":[{"byteLength":1463412,"uri":"dragon.bin"}]}