{
    "asset" : {
        "generator" : "Khronos glTF Blender I/O v1.5.17",
        "version" : "2.0"
    },
    "scene" : 0,
    "scenes" : [
        {
            "name" : "Scene",
            "nodes" : [
                0,
                1,
                2,
                3
            ]
        }
    ],
    "nodes" : [
        {
            "name" : "Light",
            "rotation" : [
                0.16907575726509094,
                0.7558803558349609,
                -0.27217137813568115,
                0.570947527885437
            ],
            "translation" : [
                4.076245307922363,
                5.903861999511719,
                -1.0054539442062378
            ]
        },
        {
            "name" : "Camera",
            "rotation" : [
                0.483536034822464,
                0.33687159419059753,
                -0.20870360732078552,
                0.7804827094078064
            ],
            "translation" : [
                7.358891487121582,
                4.958309173583984,
                6.925790786743164
            ]
        },
        {
            "mesh" : 0,
            "name" : "Plan",
            "translation" : [
                -0.044349316507577896,
                0,
                0
            ]
        },
        {
            "mesh" : 1,
            "name" : "Texte",
            "rotation" : [
                0.5,
                0.5,
                -0.5,
                0.4999999701976776
            ],
            "translation" : [
                1.0263103246688843,
                -1.164254903793335,
                1.6915535926818848
            ]
        }
    ],
    "animations" : [
        {
            "channels" : [
                {
                    "sampler" : 0,
                    "target" : {
                        "node" : 2,
                        "path" : "translation"
                    }
                },
                {
                    "sampler" : 1,
                    "target" : {
                        "node" : 2,
                        "path" : "rotation"
                    }
                },
                {
                    "sampler" : 2,
                    "target" : {
                        "node" : 2,
                        "path" : "scale"
                    }
                }
            ],
            "name" : "PlanAction",
            "samplers" : [
                {
                    "input" : 8,
                    "interpolation" : "LINEAR",
                    "output" : 9
                },
                {
                    "input" : 8,
                    "interpolation" : "LINEAR",
                    "output" : 10
                },
                {
                    "input" : 8,
                    "interpolation" : "LINEAR",
                    "output" : 11
                }
            ]
        },
        {
            "channels" : [
                {
                    "sampler" : 0,
                    "target" : {
                        "node" : 3,
                        "path" : "translation"
                    }
                },
                {
                    "sampler" : 1,
                    "target" : {
                        "node" : 3,
                        "path" : "rotation"
                    }
                },
                {
                    "sampler" : 2,
                    "target" : {
                        "node" : 3,
                        "path" : "scale"
                    }
                }
            ],
            "name" : "TexteAction",
            "samplers" : [
                {
                    "input" : 12,
                    "interpolation" : "LINEAR",
                    "output" : 13
                },
                {
                    "input" : 12,
                    "interpolation" : "LINEAR",
                    "output" : 14
                },
                {
                    "input" : 12,
                    "interpolation" : "LINEAR",
                    "output" : 15
                }
            ]
        }
    ],
    "materials" : [
        {
            "doubleSided" : true,
            "name" : "BleuST",
            "pbrMetallicRoughness" : {}
        },
        {
            "doubleSided" : true,
            "name" : "bleuST",
            "pbrMetallicRoughness" : {}
        }
    ],
    "meshes" : [
        {
            "name" : "Plan",
            "primitives" : [
                {
                    "attributes" : {
                        "POSITION" : 0,
                        "NORMAL" : 1,
                        "TEXCOORD_0" : 2
                    },
                    "indices" : 3,
                    "material" : 0
                }
            ]
        },
        {
            "name" : "life.augmented",
            "primitives" : [
                {
                    "attributes" : {
                        "POSITION" : 4,
                        "NORMAL" : 5,
                        "TEXCOORD_0" : 6
                    },
                    "indices" : 7,
                    "material" : 1
                }
            ]
        }
    ],
    "accessors" : [
        {
            "bufferView" : 0,
            "componentType" : 5126,
            "count" : 790,
            "max" : [
                1.17926824092865,
                1.1581257581710815,
                1.5185185670852661
            ],
            "min" : [
                1,
                -0.5657773613929749,
                -1.715358018875122
            ],
            "type" : "VEC3"
        },
        {
            "bufferView" : 1,
            "componentType" : 5126,
            "count" : 790,
            "type" : "VEC3"
        },
        {
            "bufferView" : 2,
            "componentType" : 5126,
            "count" : 790,
            "type" : "VEC2"
        },
        {
            "bufferView" : 3,
            "componentType" : 5123,
            "count" : 1416,
            "type" : "SCALAR"
        },
        {
            "bufferView" : 4,
            "componentType" : 5126,
            "count" : 41607,
            "max" : [
                3.394270658493042,
                0.030000001192092896,
                0.1357000172138214
            ],
            "min" : [
                0.03835000470280647,
                -0.030000001192092896,
                -0.4080091714859009
            ],
            "type" : "VEC3"
        },
        {
            "bufferView" : 5,
            "componentType" : 5126,
            "count" : 41607,
            "type" : "VEC3"
        },
        {
            "bufferView" : 6,
            "componentType" : 5126,
            "count" : 41607,
            "type" : "VEC2"
        },
        {
            "bufferView" : 7,
            "componentType" : 5123,
            "count" : 75396,
            "type" : "SCALAR"
        },
        {
            "bufferView" : 8,
            "componentType" : 5126,
            "count" : 41,
            "max" : [
                1.7083333333333333
            ],
            "min" : [
                0.041666666666666664
            ],
            "type" : "SCALAR"
        },
        {
            "bufferView" : 9,
            "componentType" : 5126,
            "count" : 41,
            "type" : "VEC3"
        },
        {
            "bufferView" : 10,
            "componentType" : 5126,
            "count" : 41,
            "type" : "VEC4"
        },
        {
            "bufferView" : 11,
            "componentType" : 5126,
            "count" : 41,
            "type" : "VEC3"
        },
        {
            "bufferView" : 12,
            "componentType" : 5126,
            "count" : 21,
            "max" : [
                2.5
            ],
            "min" : [
                1.6666666666666667
            ],
            "type" : "SCALAR"
        },
        {
            "bufferView" : 13,
            "componentType" : 5126,
            "count" : 21,
            "type" : "VEC3"
        },
        {
            "bufferView" : 14,
            "componentType" : 5126,
            "count" : 21,
            "type" : "VEC4"
        },
        {
            "bufferView" : 15,
            "componentType" : 5126,
            "count" : 21,
            "type" : "VEC3"
        }
    ],
    "bufferViews" : [
        {
            "buffer" : 0,
            "byteLength" : 9480,
            "byteOffset" : 0
        },
        {
            "buffer" : 0,
            "byteLength" : 9480,
            "byteOffset" : 9480
        },
        {
            "buffer" : 0,
            "byteLength" : 6320,
            "byteOffset" : 18960
        },
        {
            "buffer" : 0,
            "byteLength" : 2832,
            "byteOffset" : 25280
        },
        {
            "buffer" : 0,
            "byteLength" : 499284,
            "byteOffset" : 28112
        },
        {
            "buffer" : 0,
            "byteLength" : 499284,
            "byteOffset" : 527396
        },
        {
            "buffer" : 0,
            "byteLength" : 332856,
            "byteOffset" : 1026680
        },
        {
            "buffer" : 0,
            "byteLength" : 150792,
            "byteOffset" : 1359536
        },
        {
            "buffer" : 0,
            "byteLength" : 164,
            "byteOffset" : 1510328
        },
        {
            "buffer" : 0,
            "byteLength" : 492,
            "byteOffset" : 1510492
        },
        {
            "buffer" : 0,
            "byteLength" : 656,
            "byteOffset" : 1510984
        },
        {
            "buffer" : 0,
            "byteLength" : 492,
            "byteOffset" : 1511640
        },
        {
            "buffer" : 0,
            "byteLength" : 84,
            "byteOffset" : 1512132
        },
        {
            "buffer" : 0,
            "byteLength" : 252,
            "byteOffset" : 1512216
        },
        {
            "buffer" : 0,
            "byteLength" : 336,
            "byteOffset" : 1512468
        },
        {
            "buffer" : 0,
            "byteLength" : 252,
            "byteOffset" : 1512804
        }
    ],
    "buffers" : [
        {
            "byteLength" : 1513056,
            "uri" : "logoSTV2.bin"
        }
    ]
}
