{"asset":{"generator":"3D Builder","version":"2.0"},"scene":0,"scenes":[{"nodes":[0,1]}],"nodes":[{"mesh":0,"matrix":[1,0,0,0,0,-1.1920928955078125E-7,-0.99999988079071045,0,0,0.99999988079071045,-1.1920928955078125E-7,0,-3.8454533068943419E-7,2.9802317058624794E-8,-1.8167497728427406E-8,1]},{"mesh":1,"matrix":[1,0,0,0,0,-1.1920928955078125E-7,-0.99999988079071045,0,0,0.99999988079071045,-1.1920928955078125E-7,0,-3.8454533068943419E-7,2.9802317058624794E-8,-1.8167497728427406E-8,1]}],"meshes":[{"primitives":[{"attributes":{"POSITION":0},"mode":4,"indices":1,"material":0}]},{"primitives":[{"attributes":{"POSITION":2},"mode":4,"indices":3,"material":0}]}],"materials":[{"name":"Blue","pbrMetallicRoughness":{"baseColorFactor":[0,0.19461780786514282,0.60382741689682007,1],"metallicFactor":0,"roughnessFactor":0.498039186000824},"alphaMode":"OPAQUE"}],"accessors":[{"bufferView":0,"byteOffset":0,"count":14990,"componentType":5126,"type":"VEC3","min":[-0.0562206506729126,-0.028964728116989136,8.7171792984008789E-7],"max":[-0.031880676746368408,0.029291693121194839,0.095674619078636169]},{"bufferView":1,"byteOffset":0,"count":89928,"componentType":5125,"type":"SCALAR"},{"bufferView":2,"byteOffset":0,"count":20791,"componentType":5126,"type":"VEC3","min":[-0.039414644241333008,-0.031590528786182404,-2.9802322387695313E-8],"max":[0.056221425533294678,0.031590491533279419,0.019676988944411278]},{"bufferView":3,"byteOffset":0,"count":124746,"componentType":5125,"type":"SCALAR"}],"bufferViews":[{"buffer":0,"byteOffset":0,"byteLength":179880,"byteStride":12,"target":34962},{"buffer":0,"byteOffset":179880,"byteLength":359712,"target":34963},{"buffer":0,"byteOffset":539592,"byteLength":249492,"byteStride":12,"target":34962},{"buffer":0,"byteOffset":789084,"byteLength":498984,"target":34963}],"buffers":[{"byteLength":1288068,"uri":"scene1.bin"}]}